<svg xmlns="http://www.w3.org/2000/svg" viewBox="0 0 64 64">
  <circle cx="32" cy="32" r="32" fill="#1669C7"/>
  <path fill="#fff" fill-rule="evenodd" d="M23.2 14.4C19 14.4 15.5 18.2 15.5 23.6C15.5 27.6 17.3 30.6 18.3 33.6C19.2 36.2 19.1 40 19.6 43C20.1 46.8 21.6 49.8 24.4 49.8C26.4 49.8 27.2 48.2 27.8 45.6C28.6 42 29.2 38.1 32 38.1C34.8 38.1 35.4 42 36.2 45.6C36.8 48.2 37.6 49.8 39.6 49.8C42.4 49.8 43.9 46.8 44.4 43C44.9 40 44.8 36.2 45.7 33.6C46.7 30.6 48.5 27.6 48.5 23.6C48.5 18.2 45 14.4 40.8 14.4C37.4 14.4 34.6 16.6 32 18.3C29.4 16.6 26.6 14.4 23.2 14.4ZM32.1 18.4C34.3 20 37.2 20.4 39.8 19C37.1 19.3 34.5 19 32.1 18.4Z"/>
</svg>
